<?xml version="1.0" encoding="utf-8"?>
<!-- Generator: Adobe Illustrator 21.0.0, SVG Export Plug-In . SVG Version: 6.00 Build 0)  -->
<svg version="1.1" id="图层_1" xmlns="http://www.w3.org/2000/svg" xmlns:xlink="http://www.w3.org/1999/xlink" x="0px" y="0px"
	 viewBox="0 0 2560 1338" style="enable-background:new 0 0 2560 1338;" xml:space="preserve">
<style type="text/css">
	.st0{fill:#FF0000;stroke:#FF0000;stroke-width:0.2835;stroke-linecap:square;stroke-miterlimit:10;}
	.st1{fill:#FF8000;stroke:#FF8000;stroke-width:0.2835;stroke-linecap:square;stroke-miterlimit:10;}
	.st2{fill:#00F3EC;stroke:#00F3EC;stroke-width:0.2835;stroke-linecap:square;stroke-miterlimit:10;}
	.st3{fill:#00FF00;stroke:#00FF00;stroke-width:0.2835;stroke-linecap:square;stroke-miterlimit:10;}
	.st4{fill:none;stroke:#AAAAAA;stroke-width:0.2835;stroke-linecap:round;stroke-miterlimit:10;}
	.st5{fill:none;stroke:#000000;stroke-miterlimit:10;}
	.st6{fill:#505050;}
	.st7{font-family:'Arial-BoldMT';}
	.st8{font-size:14px;}
	.st9{fill:#FFFFFF;fill-opacity:0.8;stroke:#EEEEEE;stroke-width:0.5;stroke-miterlimit:10;}
	.st10{font-size:15px;}
	.st11{fill:#00FF00;stroke:#000000;stroke-width:0.5;stroke-miterlimit:10;}
	.st12{font-family:'ArialMT';}
	.st13{fill:#FF8000;stroke:#000000;stroke-width:0.5;stroke-miterlimit:10;}
	.st14{fill:#00F3EC;stroke:#000000;stroke-width:0.5;stroke-miterlimit:10;}
	.st15{fill:#FF0000;stroke:#000000;stroke-width:0.5;stroke-miterlimit:10;}
	.st16{fill:none;stroke:#000000;stroke-width:0.5;stroke-miterlimit:10;}
</style>
<g id="mainHolder" transform="translate(1046.12785,764.4639) rotate(140) scale(0.55582,0.55582)">
	<g id="rangeHolder">
		<path class="st0" d="M0,0l-57.4,0l0-2.2L0,0"/>
		<path class="st0" d="M167.9-149.8l22.7-66.3l2.5,0.9L167.9-149.8"/>
		<path class="st0" d="M156.9-82.4l1.7-41.8l1.6,0.1L156.9-82.4"/>
		<path class="st0" d="M176.7-143.6l122.1-71.1l2.6,4.7L176.7-143.6"/>
		<path class="st0" d="M107.4-97.7l-7.8-49.5l1.9-0.3L107.4-97.7"/>
		<path class="st0" d="M129.8-141.6l23-90.1l3.4,0.9L129.8-141.6"/>
		<path class="st0" d="M83.1-124.4l-2.6-12.8l0.5-0.1L83.1-124.4"/>
		<path class="st0" d="M127.1-101.8l14.7-32.4l1.2,0.6L127.1-101.8"/>
		<path class="st0" d="M118.1-82.1l14.7-55.6l2.1,0.6L118.1-82.1"/>
		<path class="st0" d="M83.2-133L78-155.3l0.9-0.2L83.2-133"/>
		<path class="st0" d="M84.5-107.1l-23.8-70.8l2.7-0.9L84.5-107.1"/>
		<path class="st0" d="M156.9-82.4l4.6-39.9l1.5,0.2L156.9-82.4"/>
		<path class="st0" d="M157.9-75l28.2-32.6l1.2,1.1L157.9-75"/>
		<path class="st0" d="M107.4-97.7l-1-69l2.6,0L107.4-97.7"/>
		<path class="st0" d="M113.8-112.5l0-68.8l2.6,0L113.8-112.5"/>
		<path class="st0" d="M117.2-108.7l17.4-83.8l3.2,0.7L117.2-108.7"/>
		<path class="st0" d="M83.8-25l-84-17l0.7-3.2L83.8-25"/>
		<path class="st0" d="M83.8-25L29.9-59l1.3-2L83.8-25"/>
		<path class="st0" d="M91.5-75.5l-17.5-30l1.2-0.6L91.5-75.5"/>
		<path class="st0" d="M83.2-133l-0.3-46.5l1.8,0L83.2-133"/>
		<path class="st0" d="M181.8,148.4l0.7-0.3l0,0L181.8,148.4"/>
		<path class="st0" d="M157.9-75l55.7-12.7l0.4,2.1L157.9-75"/>
		<path class="st0" d="M0,0l-63.3-2.4l0.1-2.4L0,0"/>
		<path class="st0" d="M73.5-64.8l-56.2-35.9l1.4-2.1L73.5-64.8"/>
		<path class="st0" d="M87.8-91.4L-65.7-362.7l10.4-5.6L87.8-91.4"/>
		<path class="st0" d="M149.3-16.7l1.8-100.3l3.8,0.1L149.3-16.7"/>
		<path class="st0" d="M73.5-64.8L45.3-97.1l1.3-1L73.5-64.8"/>
		<path class="st0" d="M113.8-112.5l9.5-72l2.7,0.4L113.8-112.5"/>
		<path class="st0" d="M167.9-149.8l45-56.4l2.1,1.8L167.9-149.8"/>
		<path class="st0" d="M129.8-141.6l19.3-46.9l1.8,0.8L129.8-141.6"/>
		<path class="st0" d="M138.8-115.5l28.2-60.4l2.3,1.1L138.8-115.5"/>
		<path class="st0" d="M98-38.2L38.3-74.4l1.4-2.2L98-38.2"/>
		<path class="st0" d="M206.7-142.9l54.9-14.1l0.5,2.1L206.7-142.9"/>
		<path class="st0" d="M98.4-56.8L13.8-161.5l4.1-3.1L98.4-56.8"/>
		<path class="st0" d="M206.7-142.9l54.7,8.6l-0.4,2.1L206.7-142.9"/>
		<path class="st1" d="M-489.5,326.9L-516.1,203l4.7-0.9L-489.5,326.9"/>
		<path class="st1" d="M-510.8,379.2l-77.1-103.1l4-2.9L-510.8,379.2"/>
		<path class="st1" d="M-616.2,515.5l-18.6-0.4l0-0.7L-616.2,515.5"/>
		<path class="st1" d="M-116.9,530.6L10.2,768.4l-9.1,4.7L-116.9,530.6"/>
		<path class="st1" d="M-493,690.7l-209,59.1l-2.1-8L-493,690.7"/>
		<path class="st1" d="M-481.8,684.8l-242.1,31l-1-9.2L-481.8,684.8"/>
		<path class="st1" d="M-496.8,355.8l-63.9-150.3l5.8-2.3L-496.8,355.8"/>
		<path class="st1" d="M-489.5,326.9l-24.8-225.4l8.6-0.8L-489.5,326.9"/>
		<path class="st1" d="M-160.8,823.6l29.8,134.7l-5.2,1L-160.8,823.6"/>
		<path class="st1" d="M-493.4,464.7l-142.5-71.4l2.8-5.4L-493.4,464.7"/>
		<path class="st1" d="M-459.3,511.4L-644.9,468l1.8-7L-459.3,511.4"/>
		<path class="st1" d="M-274.8,130.1l51.1-203.3l7.7,2.1L-274.8,130.1"/>
		<path class="st1" d="M-160.8,823.6l19.7,149.1l-5.7,0.6L-160.8,823.6"/>
		<path class="st1" d="M-432.4,733.5l-168.9,225.8l-8.5-6.6L-432.4,733.5"/>
		<path class="st1" d="M-510.8,379.2l-83-136.4l5.3-3.1L-510.8,379.2"/>
		<path class="st1" d="M-479.8,451.8l-181.5-151.3l5.9-6.8L-479.8,451.8"/>
		<path class="st1" d="M-537.7,742.7l-202.4,69.8l-2.5-7.8L-537.7,742.7"/>
		<path class="st1" d="M-493,690.7l-263.7,54.4l-1.9-10.1L-493,690.7"/>
		<path class="st1" d="M-346,364.5l23.2-162.1l6.2,1L-346,364.5"/>
		<path class="st1" d="M-329,304l23.8-167.5l6.4,1L-329,304"/>
		<path class="st1" d="M-357.5,364.2l-21.1-203.8l7.8-0.7L-357.5,364.2"/>
		<path class="st1" d="M-399.8,376.5l-85.1-193.6l7.4-3.1L-399.8,376.5"/>
		<path class="st1" d="M-370,398.8l-23.4-118.5l4.5-0.8L-370,398.8"/>
		<path class="st1" d="M-317.4,263.3l55.7-318.5l12.1,2.4L-317.4,263.3"/>
		<path class="st1" d="M-399.8,376.5l-70.4-178.4l6.8-2.6L-399.8,376.5"/>
		<path class="st1" d="M-392.8,383.1l-71.8-225l8.6-2.6L-392.8,383.1"/>
		<path class="st1" d="M-432.4,733.5l-143.9,124.4l-4.6-5.6L-432.4,733.5"/>
		<path class="st1" d="M-477.8,394.8l-57.8-206.1l7.9-2.1L-477.8,394.8"/>
		<path class="st1" d="M-522.7,339.2l-84.9-150l5.8-3.1L-522.7,339.2"/>
		<path class="st1" d="M-533.3,382.6l-98.5-112.4l4.4-3.7L-533.3,382.6"/>
		<path class="st1" d="M-554.3,766.1l-247.8,172.6l-6.4-9.6L-554.3,766.1"/>
		<path class="st1" d="M-304.9,776.9l-64.9,227.2l-8.6-2.6L-304.9,776.9"/>
		<path class="st1" d="M-516.5,668.5l-299.5,8l-0.1-11.4L-516.5,668.5"/>
		<path class="st1" d="M-493.4,464.7L-697,313.6l5.9-7.6L-493.4,464.7"/>
		<path class="st1" d="M-370,398.8l-16.5-167.6l6.4-0.5L-370,398.8"/>
		<path class="st1" d="M-539.7,647.9l-207.7-34.4l1.5-7.9L-539.7,647.9"/>
		<path class="st1" d="M-522.7,339.2l-70.6-166.6l6.4-2.6L-522.7,339.2"/>
		<path class="st1" d="M-396.5,606.9l-240.7-34.4l1.5-9.1L-396.5,606.9"/>
		<path class="st1" d="M-496.8,355.8l-61.7-188.5l7.2-2.2L-496.8,355.8"/>
		<path class="st1" d="M-346.5,242.3l2.4-149.3l5.7,0.2L-346.5,242.3"/>
		<path class="st1" d="M-464.4,590.5l-169.7-50.8l2.1-6.4L-464.4,590.5"/>
		<path class="st1" d="M-747.4,761.2l-111.4,56.9l-2.1-4.3L-747.4,761.2"/>
		<path class="st1" d="M-301.1,209.5L-249.8-21l8.7,2.1L-301.1,209.5"/>
		<path class="st1" d="M-274.8,130.1l27.4-83.2l3.1,1.1L-274.8,130.1"/>
		<path class="st1" d="M-747.4,761.2l-116.2-16.8l0.7-4.4L-747.4,761.2"/>
		<path class="st1" d="M-533.3,382.6l-76.1-112.4l4.3-2.8L-533.3,382.6"/>
		<path class="st1" d="M-392.8,383.1l-54.6-243.2l9.3-1.9L-392.8,383.1"/>
		<path class="st1" d="M-346.5,242.3l33-229.7l8.7,1.4L-346.5,242.3"/>
		<path class="st1" d="M-182,726.8l78.6,215.2l-8.3,2.8L-182,726.8"/>
		<path class="st1" d="M-385.9,467.6l-106.7-199.9l7.7-3.9L-385.9,467.6"/>
		<path class="st1" d="M-385.9,467.6l-97.8-201.3l7.7-3.6L-385.9,467.6"/>
		<path class="st1" d="M-497.8,430.3L-629,298.9l5.1-4.9L-497.8,430.3"/>
		<path class="st1" d="M-459.3,511.4l-205.3-97l3.8-7.7L-459.3,511.4"/>
		<path class="st1" d="M-539.7,647.9l-237.7-69.4l2.8-9L-539.7,647.9"/>
		<path class="st1" d="M-554.3,766.1l-192.3,84.7l-3.1-7.4L-554.3,766.1"/>
		<path class="st1" d="M-606.2,752.3l-156,40.3l-1.4-6L-606.2,752.3"/>
		<path class="st1" d="M-616.2,515.5l-23.4-10.3l0.4-0.9L-616.2,515.5"/>
		<path class="st1" d="M-327.8,664.7l-161.6,199.1l-7.5-6.3L-327.8,664.7"/>
		<path class="st1" d="M-518.8,644.1l-210.1-76.6l3.1-7.9L-518.8,644.1"/>
		<path class="st1" d="M-433.1,712.5l-206.2,144.8l-5.4-8L-433.1,712.5"/>
		<path class="st1" d="M-270.9,719.5l-7.9,256l-9.7-0.5L-270.9,719.5"/>
		<path class="st1" d="M-304.9,776.9l-139.9,172.3l-6.5-5.5L-304.9,776.9"/>
		<path class="st1" d="M-481.8,684.8l-231.6,20.1l-0.6-8.8L-481.8,684.8"/>
		<path class="st1" d="M-516.5,668.5L-749.7,639l1.3-8.9L-516.5,668.5"/>
		<path class="st1" d="M-518.8,644.1l-182.1-88.5l3.5-6.9L-518.8,644.1"/>
		<path class="st1" d="M-354.9,313.7l-5.9-187.8l7.2-0.1L-354.9,313.7"/>
		<path class="st2" d="M312.1,136.4l63.9-10.6l0.4,2.4L312.1,136.4"/>
		<path class="st2" d="M235.4,133.6l21.4-23.5l0.9,0.8L235.4,133.6"/>
		<path class="st2" d="M325.2,152.3l18.6,3.4l-0.1,0.7L325.2,152.3"/>
		<path class="st2" d="M262.8,118.2l1.2-4.2l0.2,0L262.8,118.2"/>
		<path class="st2" d="M188.8,88.7l20.1-29l1.1,0.8L188.8,88.7"/>
		<path class="st2" d="M228.8,137.3l27.4-7.9l0.3,1.1L228.8,137.3"/>
		<path class="st2" d="M188.8,88.7l53.7-63.3l2.4,2.1L188.8,88.7"/>
		<path class="st2" d="M346,139.9l18.3-3.3l0.1,0.7L346,139.9"/>
		<path class="st2" d="M333.2,155.5l35.6,25.8l-1,1.3L333.2,155.5"/>
		<path class="st2" d="M191.7,137.5l24.8-8.9l0.4,0.7L191.7,137.5"/>
		<path class="st2" d="M182.9,129.6l27.1-11l0.7,0.7L182.9,129.6"/>
		<path class="st2" d="M317.1,139.2l35.9-1.8l0,1.4L317.1,139.2"/>
		<path class="st2" d="M211.8,137.7l27.2-12.5l0.5,1L211.8,137.7"/>
		<path class="st2" d="M163.2,72.8l44.4-46.5l1.8,1.9L163.2,72.8"/>
		<path class="st2" d="M303,144.6l27.8,1.8l-0.1,1.1L303,144.6"/>
		<path class="st2" d="M333.2,155.5l15.1,27.9l-1.1,0.6L333.2,155.5"/>
		<path class="st2" d="M346,139.9l29.5-2.2l0.1,1.1L346,139.9"/>
		<path class="st2" d="M312.1,136.4l71.3-9.1l0.3,2.7L312.1,136.4"/>
		<path class="st2" d="M257.9,139l35-7.2l0.2,1.3L257.9,139"/>
		<path class="st2" d="M206.4,109.1L297,26.8l3.1,3.5L206.4,109.1"/>
		<path class="st2" d="M325.2,152.3l44.5,9.8l-0.4,1.7L325.2,152.3"/>
		<path class="st2" d="M241.1,137.9l36.8-9l0.3,1.4L241.1,137.9"/>
		<path class="st2" d="M300.9,139.1l47.9-4.3l0.1,1.8L300.9,139.1"/>
		<path class="st2" d="M305.4,147.6l26.5,3.7l-0.2,1L305.4,147.6"/>
		<path class="st2" d="M303,144.6l42.6,4.3l-0.2,1.6L303,144.6"/>
		<path class="st2" d="M262.8,118.2l6.8-6.4l0.2,0.3L262.8,118.2"/>
		<path class="st2" d="M206.4,109.1l100.4-39.3l1.4,3.9L206.4,109.1"/>
		<path class="st3" d="M436.3,990L280,1139l-5.6-6.1L436.3,990"/>
		<path class="st3" d="M122.7,1162.6l-67.8,53.9l-2-2.6L122.7,1162.6"/>
		<path class="st3" d="M464.6,1032.5l-43.5,165.4l-6.3-1.8L464.6,1032.5"/>
		<path class="st3" d="M464.6,1032.5l-56.7,120.9l-4.6-2.2L464.6,1032.5"/>
		<path class="st3" d="M400.4,1012l-110.1,94.6l-3.5-4.3L400.4,1012"/>
		<path class="st3" d="M287.9,1074.6l-179.2,159.8l-6-6.9L287.9,1074.6"/>
		<path class="st3" d="M361.5,1034.2l-117.3,95.2l-3.5-4.5L361.5,1034.2"/>
		<path class="st3" d="M462.6,1009.3L354,1203.7l-7.3-4.3L462.6,1009.3"/>
		<path class="st3" d="M581.7,893.4l118.8,161.9l-6.2,4.4L581.7,893.4"/>
		<path class="st3" d="M85,1181.4l-76.1,58.3l-2.2-2.9L85,1181.4"/>
		<path class="st3" d="M85,1181.4l-122.5,60.7l-2.2-4.7L85,1181.4"/>
		<path class="st3" d="M235.6,1104.3L57.7,1239.9l-5-6.9L235.6,1104.3"/>
		<path class="st3" d="M462.6,1009.3l-104.7,135.3l-5.1-4.1L462.6,1009.3"/>
		<path class="st3" d="M542.7,1125.3l10.8,103.7l-4,0.3L542.7,1125.3"/>
		<path class="st3" d="M435.2,1005.1L360,1108.6l-3.9-2.9L435.2,1005.1"/>
		<path class="st3" d="M435.2,1005.1l-137.9,148l-5.5-5.4L435.2,1005.1"/>
		<path class="st3" d="M536.9,902.2l-79.7,262.9l-10-3.2L536.9,902.2"/>
		<path class="st3" d="M292.1,270.2l193.6,294.5l-7.3,4.5L292.1,270.2"/>
		<path class="st3" d="M769,823.5l54.9-16.6l0.6,2.1L769,823.5"/>
		<path class="st3" d="M617.3,503.1l89.6,101.2l-3.9,3.3L617.3,503.1"/>
		<path class="st3" d="M727.3,522.3l56.4,13.6l-0.6,2.1L727.3,522.3"/>
		<path class="st3" d="M727.3,522.3l41.1,43.3l-1.7,1.5L727.3,522.3"/>
		<path class="st3" d="M589,954l60.4,130.3l-5,2.2L589,954"/>
		<path class="st3" d="M581.9,1029.2l10.6,158.5l-6,0.3L581.9,1029.2"/>
		<path class="st3" d="M542.7,1125.3l-30.8,78.9l-3-1.2L542.7,1125.3"/>
		<path class="st3" d="M587.4,996.9l32,124l-4.7,1.1L587.4,996.9"/>
		<path class="st3" d="M769,823.5l47.7,35.1l-1.4,1.8L769,823.5"/>
		<path class="st3" d="M691,368.1l57.1-26.9l1,2.2L691,368.1"/>
		<path class="st3" d="M722.9,843.6l66.1,58l-2.3,2.5L722.9,843.6"/>
		<path class="st3" d="M659.6,670.4L825,653l0.5,6.3L659.6,670.4"/>
		<path class="st3" d="M572.4,1060.1l-11.3,91.8l-3.5-0.5L572.4,1060.1"/>
		<path class="st3" d="M602.1,752.4l68.6,189.8l-7.3,2.5L602.1,752.4"/>
		<path class="st3" d="M648,365.5l77.2-69.4l2.6,3L648,365.5"/>
		<path class="st3" d="M659.6,670.4l137,82.8l-3.3,5.2L659.6,670.4"/>
		<path class="st3" d="M722.9,843.6l17,59.2l-2.3,0.6L722.9,843.6"/>
		<path class="st3" d="M691,368.1l84.6,21l-0.9,3.2L691,368.1"/>
		<path class="st3" d="M659.3,475.3l220.4-7.9l0.1,8.4L659.3,475.3"/>
	</g>
	<g id="pruningHolder">
	</g>
	<g id="treeHolder">
		<g>
			<path class="st4" d="M129.8-141.6l-12.6,33"/>
		</g>
		<g>
			<path class="st4" d="M-477.8,394.8l8.7,38.3"/>
		</g>
		<g>
			<path class="st4" d="M691,368.1l-43-2.6"/>
		</g>
		<g>
			<path class="st4" d="M303,144.6l-17.9-1.8"/>
		</g>
		<g>
			<path class="st4" d="M0.1-43.6L83.8-25"/>
		</g>
		<g>
			<path class="st4" d="M-391.1,279.9l21.2,118.9"/>
		</g>
		<g>
			<path class="st4" d="M-585.9,274.6l75.1,104.6"/>
		</g>
		<g>
			<path class="st4" d="M-346,364.5l-11.9,54.9"/>
		</g>
		<g>
			<path class="st4" d="M-438.6,500.5l25.5,28.3"/>
		</g>
		<g>
			<path class="st4" d="M-662.7,410.5l203.5,100.9"/>
		</g>
		<g>
			<path class="st4" d="M-605.6,956l173.1-222.6"/>
		</g>
		<g>
			<path class="st4" d="M-377.1,434l15.2,43.3"/>
		</g>
		<g>
			<path class="st4" d="M315.3,150.2l-9.8-2.6"/>
		</g>
		<g>
			<path class="st4" d="M262.8,118.2l-27.4,15.4"/>
		</g>
		<g>
			<path class="st4" d="M345.5,149.7l-42.5-5.2"/>
		</g>
		<g>
			<path class="st4" d="M-863.2,742.2l115.8,19.1"/>
		</g>
		<g>
			<path class="st4" d="M153.1-117l-3.7,100.3"/>
		</g>
		<g>
			<path class="st4" d="M879.8,471.6l-220.5,3.7"/>
		</g>
		<g>
			<path class="st4" d="M-747.4,761.2l141.2-9"/>
		</g>
		<g>
			<path class="st4" d="M769,823.5l-69.7-21"/>
		</g>
		<g>
			<path class="st4" d="M667.1,943.4l-65-191"/>
		</g>
		<g>
			<path class="st4" d="M738.8,903.2l-15.9-59.6"/>
		</g>
		<g>
			<path class="st4" d="M183.6,120.2l-6.7-16.7"/>
		</g>
		<g>
			<path class="st4" d="M55.2,1236.5l180.5-132.2"/>
		</g>
		<g>
			<path class="st4" d="M224.9,137.2l-13.1,0.4"/>
		</g>
		<g>
			<path class="st4" d="M-634.5,390.6l141.1,74.1"/>
		</g>
		<g>
			<path class="st4" d="M142.4-133.9l-15.4,32.1"/>
		</g>
		<g>
			<path class="st4" d="M369.5,162.9l-44.3-10.6"/>
		</g>
		<g>
			<path class="st4" d="M-642.1,853.4l209-140.8"/>
		</g>
		<g>
			<path class="st4" d="M87.8-91.4l3.8,15.9"/>
		</g>
		<g>
			<path class="st4" d="M333.2,155.5l-17.9-5.4"/>
		</g>
		<g>
			<path class="st4" d="M-433.6,679.4l25.2-3.8"/>
		</g>
		<g>
			<path class="st4" d="M307.5,71.6l-101.1,37.4"/>
		</g>
		<g>
			<path class="st4" d="M-741.4,808.6l203.7-66"/>
		</g>
		<g>
			<path class="st4" d="M62.1-178.3l22.4,71.2"/>
		</g>
		<g>
			<path class="st4" d="M285.1,142.7l-13-2.6"/>
		</g>
		<g>
			<path class="st4" d="M587.4,996.9L589,954"/>
		</g>
		<g>
			<path class="st4" d="M-143.9,973l-16.9-149.5"/>
		</g>
		<g>
			<path class="st4" d="M-604.7,187.5l82.1,151.6"/>
		</g>
		<g>
			<path class="st4" d="M-442.7,138.9l49.9,244.2"/>
		</g>
		<g>
			<path class="st4" d="M343.8,156l-18.6-3.7"/>
		</g>
		<g>
			<path class="st4" d="M-658.4,297.1l178.6,154.7"/>
		</g>
		<g>
			<path class="st4" d="M-488.8,265.7l102.9,201.9"/>
		</g>
		<g>
			<path class="st4" d="M-626.5,296.5l128.7,133.8"/>
		</g>
		<g>
			<path class="st4" d="M176.9,103.5l-13.7-30.7"/>
		</g>
		<g>
			<path class="st4" d="M213.9-86.7L157.9-75"/>
		</g>
		<g>
			<path class="st4" d="M589.5,1187.9l-7.6-158.7"/>
		</g>
		<g>
			<path class="st4" d="M-464.4,590.5l67.9,16.4"/>
		</g>
		<g>
			<path class="st4" d="M-479.8,451.8l29.2,30.6"/>
		</g>
		<g>
			<path class="st4" d="M-606.2,752.3l68.5-9.6"/>
		</g>
		<g>
			<path class="st4" d="M-479.9,264.5l93.9,203.1"/>
		</g>
		<g>
			<path class="st4" d="M-38.7,1239.8L85,1181.4"/>
		</g>
		<g>
			<path class="st4" d="M-513.7,202.5l24.2,124.4"/>
		</g>
		<g>
			<path class="st4" d="M-537.7,742.7l56.5-13.6"/>
		</g>
		<g>
			<path class="st4" d="M-107.5,943.4L-182,726.8"/>
		</g>
		<g>
			<path class="st4" d="M191.9-215.6l-24,65.8"/>
		</g>
		<g>
			<path class="st4" d="M177.1,224.9l4.7-76.5"/>
		</g>
		<g>
			<path class="st4" d="M-298.1,652l43.5,12.8"/>
		</g>
		<g>
			<path class="st4" d="M30.6-60l53.2,35"/>
		</g>
		<g>
			<path class="st4" d="M149.3-16.7l-5.5,48.3"/>
		</g>
		<g>
			<path class="st4" d="M-133.5,958.8l-27.3-135.3"/>
		</g>
		<g>
			<path class="st4" d="M-255.6-54.1l-61.7,317.4"/>
		</g>
		<g>
			<path class="st4" d="M127.1-101.8l-9,19.7"/>
		</g>
		<g>
			<path class="st4" d="M559.4,1151.7l13-91.6"/>
		</g>
		<g>
			<path class="st4" d="M-634.8,514.7l18.6,0.8"/>
		</g>
		<g>
			<path class="st4" d="M350.4,1201.6l112.2-192.3"/>
		</g>
		<g>
			<path class="st4" d="M-317.4,263.3L-329,304"/>
		</g>
		<g>
			<path class="st4" d="M-458.8,465.6l8.2,16.9"/>
		</g>
		<g>
			<path class="st4" d="M-493,690.7l59.5-11.3"/>
		</g>
		<g>
			<path class="st4" d="M481.3,566.4L292.1,270.2"/>
		</g>
		<g>
			<path class="st4" d="M209.5,60.1l-20.7,28.6"/>
		</g>
		<g>
			<path class="st4" d="M188.8,88.7l-11.9,14.8"/>
		</g>
		<g>
			<path class="st4" d="M73.5-64.8L98-38.2"/>
		</g>
		<g>
			<path class="st4" d="M261.9-156l-55.2,13.1"/>
		</g>
		<g>
			<path class="st4" d="M128,4.9L0,0"/>
		</g>
		<g>
			<path class="st4" d="M-578.6,855.1l146.2-121.7"/>
		</g>
		<g>
			<path class="st4" d="M176.7-143.6L149.1-126"/>
		</g>
		<g>
			<path class="st4" d="M-639.4,504.7l23.2,10.8"/>
		</g>
		<g>
			<path class="st4" d="M462.6,1009.3l29.2-43.7"/>
		</g>
		<g>
			<path class="st4" d="M7.7,1238.2l77.2-56.9"/>
		</g>
		<g>
			<path class="st4" d="M611.4,702l-5.6-48.8"/>
		</g>
		<g>
			<path class="st4" d="M-63.3-3.6L0,0"/>
		</g>
		<g>
			<path class="st4" d="M-762.9,789.6l156.7-37.3"/>
		</g>
		<g>
			<path class="st4" d="M261.3-133.3l-54.6-9.6"/>
		</g>
		<g>
			<path class="st4" d="M572.6,387L292.1,270.2"/>
		</g>
		<g>
			<path class="st4" d="M18-101.8l55.5,37"/>
		</g>
		<g>
			<path class="st4" d="M361.5,1034.2l38.9-22.3"/>
		</g>
		<g>
			<path class="st4" d="M-448,946.5l143.1-169.6"/>
		</g>
		<g>
			<path class="st4" d="M-703.1,745.9l210-55.2"/>
		</g>
		<g>
			<path class="st4" d="M364.4,137l-18.4,2.9"/>
		</g>
		<g>
			<path class="st4" d="M115.1-181.3l-1.3,68.8"/>
		</g>
		<g>
			<path class="st4" d="M-633.1,536.5l168.7,54"/>
		</g>
		<g>
			<path class="st4" d="M646.8,1085.5L589,954"/>
		</g>
		<g>
			<path class="st4" d="M113.8-112.5l-2.4,25"/>
		</g>
		<g>
			<path class="st4" d="M-699.2,552.1l180.4,92"/>
		</g>
		<g>
			<path class="st4" d="M-354.9,313.7l-2.7,50.5"/>
		</g>
		<g>
			<path class="st4" d="M383.6,128.6l-71.4,7.7"/>
		</g>
		<g>
			<path class="st4" d="M210.4,118.9l-27.4,10.6"/>
		</g>
		<g>
			<path class="st4" d="M136.3-192.1l-19,83.4"/>
		</g>
		<g>
			<path class="st4" d="M-219.9-72.2l-54.9,202.3"/>
		</g>
		<g>
			<path class="st4" d="M-481.2,181.3l81.4,195.2"/>
		</g>
		<g>
			<path class="st4" d="M182.9,129.6l0.6-9.4"/>
		</g>
		<g>
			<path class="st4" d="M156.9-82.4l-2.8,29.3"/>
		</g>
		<g>
			<path class="st4" d="M-746.7,609.5l207,38.4"/>
		</g>
		<g>
			<path class="st4" d="M353,138.1l-35.9,1.1"/>
		</g>
		<g>
			<path class="st4" d="M159.4-124.1l-2.5,41.7"/>
		</g>
		<g>
			<path class="st4" d="M699.3,802.5L611.4,702"/>
		</g>
		<g>
			<path class="st4" d="M-437.7,674.4l29.4,1.2"/>
		</g>
		<g>
			<path class="st4" d="M39-75.5l59,37.3"/>
		</g>
		<g>
			<path class="st4" d="M305.4,147.6l-20.3-4.9"/>
		</g>
		<g>
			<path class="st4" d="M368.2,182l-35.1-26.5"/>
		</g>
		<g>
			<path class="st4" d="M228.8,137.3l-3.8-0.1"/>
		</g>
		<g>
			<path class="st4" d="M-590.1,171.2l67.4,167.9"/>
		</g>
		<g>
			<path class="st4" d="M347.7,183.7l-14.6-28.2"/>
		</g>
		<g>
			<path class="st4" d="M109.1-72.8l-0.8,13.3"/>
		</g>
		<g>
			<path class="st4" d="M256.4,130l-27.6,7.3"/>
		</g>
		<g>
			<path class="st4" d="M-727.5,563.5l208.6,80.6"/>
		</g>
		<g>
			<path class="st4" d="M-557.8,204.3l61,151.5"/>
		</g>
		<g>
			<path class="st4" d="M0,0L0,0"/>
		</g>
		<g>
			<path class="st4" d="M452.2,1163.5l84.7-261.4"/>
		</g>
		<g>
			<path class="st4" d="M154.2-53.1l-4.8,36.4"/>
		</g>
		<g>
			<path class="st4" d="M-616.2,515.5l151.8,75"/>
		</g>
		<g>
			<path class="st4" d="M727.3,522.3l-68-47"/>
		</g>
		<g>
			<path class="st4" d="M78.4-155.4l4.8,22.4"/>
		</g>
		<g>
			<path class="st4" d="M-408.3,675.6l48-1.7"/>
		</g>
		<g>
			<path class="st4" d="M-301.1,209.5l-16.3,53.8"/>
		</g>
		<g>
			<path class="st4" d="M264.1,114l-1.3,4.2"/>
		</g>
		<g>
			<path class="st4" d="M659.3,475.3l-49-15.2"/>
		</g>
		<g>
			<path class="st4" d="M602.1,752.4l9.3-50.4"/>
		</g>
		<g>
			<path class="st4" d="M163.2,72.8l-19.3-41.2"/>
		</g>
		<g>
			<path class="st4" d="M581.7,893.4l-12.4-52.8"/>
		</g>
		<g>
			<path class="st4" d="M-370,398.8l7.4,56.6"/>
		</g>
		<g>
			<path class="st4" d="M149.1-126l-10.3,10.4"/>
		</g>
		<g>
			<path class="st4" d="M182.2,137.8l0.7-8.2"/>
		</g>
		<g>
			<path class="st4" d="M542.7,1125.3l29.7-65.2"/>
		</g>
		<g>
			<path class="st4" d="M-283.7,975.3l12.8-255.8"/>
		</g>
		<g>
			<path class="st4" d="M-304.9,776.9l34-57.3"/>
		</g>
		<g>
			<path class="st4" d="M167.9-149.8L149.1-126"/>
		</g>
		<g>
			<path class="st4" d="M214-205.4l-46.1,55.6"/>
		</g>
		<g>
			<path class="st4" d="M122.7,1162.6l112.9-58.3"/>
		</g>
		<g>
			<path class="st4" d="M242.4,1127.2l119.1-92.9"/>
		</g>
		<g>
			<path class="st4" d="M115.2-12.8L128,4.9"/>
		</g>
		<g>
			<path class="st4" d="M288.6,1104.4l111.9-92.5"/>
		</g>
		<g>
			<path class="st4" d="M-636.5,567.9l240,39"/>
		</g>
		<g>
			<path class="st4" d="M289.5,139.2l-17.4,0.9"/>
		</g>
		<g>
			<path class="st4" d="M-591.2,241.3l80.4,137.9"/>
		</g>
		<g>
			<path class="st4" d="M100.5-147.3l6.9,49.6"/>
		</g>
		<g>
			<path class="st4" d="M-432.4,733.5l40.9-40.4"/>
		</g>
		<g>
			<path class="st4" d="M-396.5,606.9l75.1,16.7"/>
		</g>
		<g>
			<path class="st4" d="M85,1181.4l37.8-18.8"/>
		</g>
		<g>
			<path class="st4" d="M-539.7,647.9l76.7,18.9"/>
		</g>
		<g>
			<path class="st4" d="M-460.3,156.8l67.5,226.3"/>
		</g>
		<g>
			<path class="st4" d="M325.2,152.3l-9.9-2.2"/>
		</g>
		<g>
			<path class="st4" d="M206.7-142.9l-30-0.7"/>
		</g>
		<g>
			<path class="st4" d="M98-38.2l10.2,9"/>
		</g>
		<g>
			<path class="st4" d="M272,140.1l-14.1-1.2"/>
		</g>
		<g>
			<path class="st4" d="M-245.9,47.4l-28.9,82.7"/>
		</g>
		<g>
			<path class="st4" d="M572.4,1060.1l9.5-30.9"/>
		</g>
		<g>
			<path class="st4" d="M-493.2,860.7l165.4-196"/>
		</g>
		<g>
			<path class="st4" d="M-497.8,430.3l18,21.6"/>
		</g>
		<g>
			<path class="st4" d="M45.9-97.7l27.6,32.9"/>
		</g>
		<g>
			<path class="st4" d="M358,1107.1l77.2-102"/>
		</g>
		<g>
			<path class="st4" d="M74.6-105.8l16.9,30.3"/>
		</g>
		<g>
			<path class="st4" d="M436.3,990l29.1-19.8"/>
		</g>
		<g>
			<path class="st4" d="M84.5-107.1l3.3,15.8"/>
		</g>
		<g>
			<path class="st4" d="M294.5,1150.5l140.7-145.4"/>
		</g>
		<g>
			<path class="st4" d="M108.2-59.5l-1.7,19.8"/>
		</g>
		<g>
			<path class="st4" d="M509.7,931.6l27.1-29.4"/>
		</g>
		<g>
			<path class="st4" d="M787.8,902.8l-65-59.2"/>
		</g>
		<g>
			<path class="st4" d="M-220.6,634.4l103.7-103.8"/>
		</g>
		<g>
			<path class="st4" d="M-531.6,187.6l53.9,207.2"/>
		</g>
		<g>
			<path class="st4" d="M107.7-166.6l-0.3,69"/>
		</g>
		<g>
			<path class="st4" d="M-459.3,511.4l46.2,17.4"/>
		</g>
		<g>
			<path class="st4" d="M-309.2,13.2l-37.3,229.1"/>
		</g>
		<g>
			<path class="st4" d="M292.1,270.2l-115-45.3"/>
		</g>
		<g>
			<path class="st4" d="M108.1-29.2l7,16.4"/>
		</g>
		<g>
			<path class="st4" d="M83.8-179.5L83.2-133"/>
		</g>
		<g>
			<path class="st4" d="M648,365.5L572.6,387"/>
		</g>
		<g>
			<path class="st4" d="M-463,666.8l25.3,7.6"/>
		</g>
		<g>
			<path class="st4" d="M465.4,970.2l44.4-38.6"/>
		</g>
		<g>
			<path class="st4" d="M298.6,28.5l-92.2,80.6"/>
		</g>
		<g>
			<path class="st4" d="M138.8-115.5l-11.7,13.7"/>
		</g>
		<g>
			<path class="st4" d="M825.3,656.2l-165.7,14.3"/>
		</g>
		<g>
			<path class="st4" d="M300.1-212.4l-123.4,68.8"/>
		</g>
		<g>
			<path class="st4" d="M824.3,807.9L769,823.5"/>
		</g>
		<g>
			<path class="st4" d="M-748.2,847.1l193.9-81"/>
		</g>
		<g>
			<path class="st4" d="M589,954l-7.3-60.6"/>
		</g>
		<g>
			<path class="st4" d="M767.5,566.4l-40.2-44.1"/>
		</g>
		<g>
			<path class="st4" d="M-357.9,419.5l-4.7,36"/>
		</g>
		<g>
			<path class="st4" d="M257.9,139l-16.8-1.1"/>
		</g>
		<g>
			<path class="st4" d="M278,129.5l-36.9,8.3"/>
		</g>
		<g>
			<path class="st4" d="M-356.2,528.8l8.5,57.1"/>
		</g>
		<g>
			<path class="st4" d="M748.6,342.4L691,368.1"/>
		</g>
		<g>
			<path class="st4" d="M15.8-163.1L98.4-56.8"/>
		</g>
		<g>
			<path class="st4" d="M-554.3,766.1l73.1-37.1"/>
		</g>
		<g>
			<path class="st4" d="M317.1,139.2l-16.2-0.1"/>
		</g>
		<g>
			<path class="st4" d="M-805.4,933.9l251.1-167.8"/>
		</g>
		<g>
			<path class="st4" d="M536.9,902.2l32.4-61.5"/>
		</g>
		<g>
			<path class="st4" d="M-644,464.5l184.7,46.9"/>
		</g>
		<g>
			<path class="st4" d="M569.3,840.7l32.8-88.3"/>
		</g>
		<g>
			<path class="st4" d="M705,605.9l-87.6-102.8"/>
		</g>
		<g>
			<path class="st4" d="M-391.6,693l31.2-19.1"/>
		</g>
		<g>
			<path class="st4" d="M-392.8,383.1l15.7,50.9"/>
		</g>
		<g>
			<path class="st4" d="M-433.1,712.5l41.5-19.5"/>
		</g>
		<g>
			<path class="st4" d="M-57.4-1.1L0,0"/>
		</g>
		<g>
			<path class="st4" d="M53.9,1215.2l68.8-52.6"/>
		</g>
		<g>
			<path class="st4" d="M105.7,1230.9l182.2-156.3"/>
		</g>
		<g>
			<path class="st4" d="M-533.3,382.6l35.5,47.7"/>
		</g>
		<g>
			<path class="st4" d="M795.1,755.8l-135.4-85.4"/>
		</g>
		<g>
			<path class="st4" d="M277.2,1136l159.1-146"/>
		</g>
		<g>
			<path class="st4" d="M376.2,126.9l-64,9.4"/>
		</g>
		<g>
			<path class="st4" d="M464.6,1032.5l27.2-66.9"/>
		</g>
		<g>
			<path class="st4" d="M375.5,138.3l-29.5,1.6"/>
		</g>
		<g>
			<path class="st4" d="M775.1,390.8L691,368.1"/>
		</g>
		<g>
			<path class="st4" d="M-302.1,137L-329,304"/>
		</g>
		<g>
			<path class="st4" d="M-385.9,467.6l29.8,61.3"/>
		</g>
		<g>
			<path class="st4" d="M-360.4,673.9l32.5-9.1"/>
		</g>
		<g>
			<path class="st4" d="M235.6,1104.3l52.3-29.7"/>
		</g>
		<g>
			<path class="st4" d="M551.6,1229.2l-8.9-103.9"/>
		</g>
		<g>
			<path class="st4" d="M-493.4,464.7l54.8,35.8"/>
		</g>
		<g>
			<path class="st4" d="M617.3,503.1l-7-42.9"/>
		</g>
		<g>
			<path class="st4" d="M726.5,297.6L648,365.5"/>
		</g>
		<g>
			<path class="st4" d="M418,1197l46.6-164.5"/>
		</g>
		<g>
			<path class="st4" d="M300.9,139.1l-11.4,0.1"/>
		</g>
		<g>
			<path class="st4" d="M-274.8,130.1l-26.2,79.5"/>
		</g>
		<g>
			<path class="st4" d="M610.3,460.2L572.6,387"/>
		</g>
		<g>
			<path class="st4" d="M-329,304l-17,60.6"/>
		</g>
		<g>
			<path class="st4" d="M783.4,537l-56.1-14.6"/>
		</g>
		<g>
			<path class="st4" d="M-510,101.1l20.5,225.8"/>
		</g>
		<g>
			<path class="st4" d="M83.2-133l-0.2,8.6"/>
		</g>
		<g>
			<path class="st4" d="M269.8,111.9l-6.9,6.3"/>
		</g>
		<g>
			<path class="st4" d="M293,132.4l-35.1,6.5"/>
		</g>
		<g>
			<path class="st4" d="M-374.7,160.1l17.2,204.1"/>
		</g>
		<g>
			<path class="st4" d="M-489.5,326.9l11.7,67.8"/>
		</g>
		<g>
			<path class="st4" d="M355.4,1142.6l107.2-133.3"/>
		</g>
		<g>
			<path class="st4" d="M83.1-124.4l1.4,17.3"/>
		</g>
		<g>
			<path class="st4" d="M257.2,110.5l-21.8,23.1"/>
		</g>
		<g>
			<path class="st4" d="M239.3,125.6l-27.5,12"/>
		</g>
		<g>
			<path class="st4" d="M722.9,843.6l-23.5-41.1"/>
		</g>
		<g>
			<path class="st4" d="M605.8,653.1l11.5-150"/>
		</g>
		<g>
			<path class="st4" d="M118.1-82.1l-9.8,22.6"/>
		</g>
		<g>
			<path class="st4" d="M208.4,27.5l-45.2,45.4"/>
		</g>
		<g>
			<path class="st4" d="M-160.8,823.6l-21.2-96.8"/>
		</g>
		<g>
			<path class="st4" d="M-776,574l236.3,73.9"/>
		</g>
		<g>
			<path class="st4" d="M346,139.9l-28.9-0.7"/>
		</g>
		<g>
			<path class="st4" d="M-859.9,816l112.5-54.8"/>
		</g>
		<g>
			<path class="st4" d="M435.2,1005.1l30.2-34.9"/>
		</g>
		<g>
			<path class="st4" d="M-522.7,339.2l41.4,86.1"/>
		</g>
		<g>
			<path class="st4" d="M124.7-184.4l-10.9,71.8"/>
		</g>
		<g>
			<path class="st4" d="M91.5-75.5l6.9,18.7"/>
		</g>
		<g>
			<path class="st4" d="M162.3-122.2l-5.4,39.8"/>
		</g>
		<g>
			<path class="st4" d="M157.9-75l-3.8,21.9"/>
		</g>
		<g>
			<path class="st4" d="M111.4-87.6l-2.4,14.7"/>
		</g>
		<g>
			<path class="st4" d="M216.7,129l-25,8.5"/>
		</g>
		<g>
			<path class="st4" d="M-481.2,425.3l22.5,40.3"/>
		</g>
		<g>
			<path class="st4" d="M-629.6,268.3l96.4,114.3"/>
		</g>
		<g>
			<path class="st4" d="M330.8,146.9l-27.8-2.3"/>
		</g>
		<g>
			<path class="st4" d="M816,859.5l-47-36"/>
		</g>
		<g>
			<path class="st4" d="M-554.9,166.2l58.1,189.7"/>
		</g>
		<g>
			<path class="st4" d="M287.9,1074.6l73.6-40.4"/>
		</g>
		<g>
			<path class="st4" d="M-724.5,711.2l242.7-26.4"/>
		</g>
		<g>
			<path class="st4" d="M-816.1,670.8l299.6-2.3"/>
		</g>
		<g>
			<path class="st4" d="M510.4,1203.6l32.3-78.3"/>
		</g>
		<g>
			<path class="st4" d="M211.8,137.7l-20.1-0.1"/>
		</g>
		<g>
			<path class="st4" d="M-116.9,530.6l294-305.7"/>
		</g>
		<g>
			<path class="st4" d="M143.8,31.6L128,4.9"/>
		</g>
		<g>
			<path class="st4" d="M-254.6,664.8l34.1-30.4"/>
		</g>
		<g>
			<path class="st4" d="M-60.5-365.6L87.8-91.4"/>
		</g>
		<g>
			<path class="st4" d="M-481.8,684.8l48.2-5.4"/>
		</g>
		<g>
			<path class="st4" d="M181.8,148.4l0.4-10.6"/>
		</g>
		<g>
			<path class="st4" d="M659.6,670.4l-53.8-17.3"/>
		</g>
		<g>
			<path class="st4" d="M-399.8,376.5l22.7,57.5"/>
		</g>
		<g>
			<path class="st4" d="M-481.2,729l48.1-16.5"/>
		</g>
		<g>
			<path class="st4" d="M-374.1,1002.7l69.2-225.9"/>
		</g>
		<g>
			<path class="st4" d="M-361.8,477.3l5.7,51.5"/>
		</g>
		<g>
			<path class="st4" d="M107.4-97.7l1.7,24.8"/>
		</g>
		<g>
			<path class="st4" d="M106.6-39.7l1.6,10.5"/>
		</g>
		<g>
			<path class="st4" d="M-518.8,644.1l55.8,22.8"/>
		</g>
		<g>
			<path class="st4" d="M-413.1,528.7l65.4,57.2"/>
		</g>
		<g>
			<path class="st4" d="M117.2-108.7l-5.8,21.1"/>
		</g>
		<g>
			<path class="st4" d="M-362.6,455.5l0.7,21.8"/>
		</g>
		<g>
			<path class="st4" d="M-757.7,740.1l264.6-49.4"/>
		</g>
		<g>
			<path class="st4" d="M-450.6,482.5l12.1,18"/>
		</g>
		<g>
			<path class="st4" d="M186.8-107l-28.8,32"/>
		</g>
		<g>
			<path class="st4" d="M-321.4,623.6l23.3,28.4"/>
		</g>
		<g>
			<path class="st4" d="M150-188.1l-20.2,46.5"/>
		</g>
		<g>
			<path class="st4" d="M-516.5,668.5l78.8,5.9"/>
		</g>
		<g>
			<path class="st4" d="M154.5-231.3l-24.7,89.6"/>
		</g>
		<g>
			<path class="st4" d="M-357.5,364.2l-0.3,55.2"/>
		</g>
		<g>
			<path class="st4" d="M405.6,1152.2l59-119.8"/>
		</g>
		<g>
			<path class="st4" d="M235.4,133.6l-10.5,3.7"/>
		</g>
		<g>
			<path class="st4" d="M-466.8,196.8l67,179.7"/>
		</g>
		<g>
			<path class="st4" d="M697.4,1057.6L581.7,893.4"/>
		</g>
		<g>
			<path class="st4" d="M-346.5,242.3l-8.4,71.4"/>
		</g>
		<g>
			<path class="st4" d="M-357.2,125.8l2.3,187.8"/>
		</g>
		<g>
			<path class="st4" d="M5.7,770.8l-122.6-240.2"/>
		</g>
		<g>
			<path class="st4" d="M-270.9,719.5l16.3-54.8"/>
		</g>
		<g>
			<path class="st4" d="M83.8-25l31.4,12.2"/>
		</g>
		<g>
			<path class="st4" d="M133.8-137.5l-15.8,55.3"/>
		</g>
		<g>
			<path class="st4" d="M-341.3,93l-5.2,149.3"/>
		</g>
		<g>
			<path class="st4" d="M-469.1,433.1l10.3,32.5"/>
		</g>
		<g>
			<path class="st4" d="M581.9,1029.2l5.6-32.2"/>
		</g>
		<g>
			<path class="st4" d="M331.8,151.8l-26.4-4.2"/>
		</g>
		<g>
			<path class="st4" d="M191.7,137.5l-9.5,0.2"/>
		</g>
		<g>
			<path class="st4" d="M-496.8,355.8l27.7,77.3"/>
		</g>
		<g>
			<path class="st4" d="M-383.3,230.9l13.3,167.9"/>
		</g>
		<g>
			<path class="st4" d="M168.1-175.4l-29.3,59.8"/>
		</g>
		<g>
			<path class="st4" d="M80.7-137.3l2.4,12.9"/>
		</g>
		<g>
			<path class="st4" d="M-713.7,700.5l231.9-15.7"/>
		</g>
		<g>
			<path class="st4" d="M348.9,135.8l-48,3.3"/>
		</g>
		<g>
			<path class="st4" d="M206.4,109.1l-22.8,11.1"/>
		</g>
		<g>
			<path class="st4" d="M241.1,137.9l-12.3-0.6"/>
		</g>
		<g>
			<path class="st4" d="M-607.2,268.8l74,113.8"/>
		</g>
		<g>
			<path class="st4" d="M-327.8,664.7l29.7-12.8"/>
		</g>
		<g>
			<path class="st4" d="M-245.4-19.9l-55.7,229.5"/>
		</g>
		<g>
			<path class="st4" d="M-510.8,379.2l29.5,46.1"/>
		</g>
		<g>
			<path class="st4" d="M617.1,1121.5l-29.6-124.6"/>
		</g>
		<g>
			<path class="st4" d="M98.4-56.8l8.1,17.1"/>
		</g>
		<g>
			<path class="st4" d="M-319.7,202.8L-346,364.5"/>
		</g>
		<g>
			<path class="st4" d="M491.8,965.6l18-34"/>
		</g>
		<g>
			<path class="st4" d="M400.4,1012l35.9-22"/>
		</g>
		<g>
			<path class="st4" d="M-749.1,634.5l232.6,34"/>
		</g>
		<g>
			<path class="st4" d="M-694.1,309.8l200.7,154.9"/>
		</g>
		<g>
			<path class="st4" d="M-182,726.8l-38.6-92.4"/>
		</g>
		<g>
			<path class="st4" d="M243.7,26.5l-54.9,62.2"/>
		</g>
		<g>
			<path class="st4" d="M182.5,148.1l-0.7,0.2"/>
		</g>
		<g>
			<path class="st4" d="M-347.7,585.9l26.3,37.6"/>
		</g>
		<g>
			<path class="st4" d="M312.1,136.4l-22.7,2.9"/>
		</g>
	</g>
	<g id="scaleHolder">
	</g>
	<g id="bootstrapHolder">
	</g>
	<g id="branchlengthHolder">
	</g>
	<g id="datasetHolder">
	</g>
</g>
<g id="wrapperHolder">
	<g>
		<path class="st5" d="M175.7,47v6 M175.7,50h49.6 M225.3,47v6 M200.5,48v2"/>
		<text transform="matrix(1 0 0 1 70 54)" class="st6 st7 st8">Tree scale: 0.1</text>
	</g>
</g>
<g id="legendHolder">
	<rect x="95" y="88" class="st9" width="167.6" height="150"/>
	<text transform="matrix(1 0 0 1 100 104.5)" class="st7 st10">SubSpecies</text>
	<rect x="100" y="120" class="st11" width="20" height="20"/>
	<text transform="matrix(1 0 0 1 130 134.5)" class="st12 st10">aus</text>
	<rect x="100" y="150" class="st13" width="20" height="20"/>
	<text transform="matrix(1 0 0 1 130 164.5)" class="st12 st10">indica</text>
	<rect x="100" y="180" class="st14" width="20" height="20"/>
	<text transform="matrix(1 0 0 1 130 194.5)" class="st12 st10">temperate japonica</text>
	<rect x="100" y="210" class="st15" width="20" height="20"/>
	<text transform="matrix(1 0 0 1 130 224.5)" class="st12 st10">tropical japonica</text>
	<path class="st16" d="M98,113h161.6"/>
</g>
</svg>
